<svg width="18" height="22" viewBox="0 0 18 22" fill="none" xmlns="http://www.w3.org/2000/svg">
<path fill-rule="evenodd" clip-rule="evenodd" d="M9.5998 3.6498C9.5998 3.31843 9.33118 3.0498 8.9998 3.0498C8.66843 3.0498 8.39981 3.31843 8.39981 3.6498V10.3998H1.6498C1.31843 10.3998 1.0498 10.6684 1.0498 10.9998C1.0498 11.3312 1.31843 11.5998 1.6498 11.5998H8.39981V18.3498C8.39981 18.6812 8.66843 18.9498 8.9998 18.9498C9.33118 18.9498 9.5998 18.6812 9.5998 18.3498V11.5998H16.3498C16.6812 11.5998 16.9498 11.3312 16.9498 10.9998C16.9498 10.6684 16.6812 10.3998 16.3498 10.3998H9.5998V3.6498Z" fill="#5A5A5A"/>
</svg>
