<svg width="14" height="18" viewBox="0 0 14 18" fill="none" xmlns="http://www.w3.org/2000/svg">
<path d="M5.4047 3.91183C5.8704 2.70687 7.60874 2.72631 8.03335 3.97016L8.90971 6.53774L8.9194 6.5636C8.97147 6.69097 9.07749 6.78931 9.20947 6.83145L11.8238 7.66612C13.1227 8.08084 13.1226 9.91877 11.8238 10.3335L9.20947 11.1682C9.07751 11.2103 8.97148 11.3087 8.9194 11.436L8.90971 11.4619L8.03335 14.0295C7.60201 15.2931 5.81485 15.2931 5.38351 14.0295L4.50714 11.4619C4.46238 11.3308 4.36183 11.2268 4.23348 11.1773L4.20739 11.1682L1.5931 10.3335C0.294164 9.9188 0.294162 8.08083 1.5931 7.66612L4.20739 6.83145C4.34814 6.78649 4.4594 6.67757 4.50714 6.53774L5.38351 3.97016L5.4047 3.91183ZM7.15003 4.27162C7.0107 3.86364 6.44731 3.85093 6.28153 4.23346L6.26683 4.27162L5.39035 6.8392C5.24712 7.25879 4.91354 7.58572 4.49119 7.72058L1.87702 8.55525C1.44404 8.69348 1.44403 9.30614 1.87702 9.44438L4.49119 10.279L4.53061 10.2923C4.93427 10.4344 5.25159 10.754 5.39035 11.1604L6.26683 13.728C6.41063 14.1492 7.00623 14.1492 7.15003 13.728L8.02651 11.1604L8.04041 11.1213C8.1906 10.7206 8.5165 10.4097 8.92567 10.279L11.5398 9.44438C11.9728 9.30612 11.9728 8.69349 11.5398 8.55525L8.92567 7.72058C8.51649 7.58995 8.19059 7.27907 8.04041 6.87828L8.02651 6.8392L7.15003 4.27162Z" fill="#A02310"/>
<path d="M11.6667 5.03327C11.6667 4.7111 11.4055 4.44993 11.0833 4.44993C10.7612 4.44993 10.5 4.7111 10.5 5.03327C10.5 5.35543 10.7612 5.6166 11.0833 5.6166C11.4055 5.6166 11.6667 5.35543 11.6667 5.03327ZM12.6 5.03327C12.6 5.8709 11.9209 6.54994 11.0833 6.54994C10.2457 6.54994 9.56665 5.8709 9.56665 5.03327C9.56665 4.19564 10.2457 3.5166 11.0833 3.5166C11.9209 3.5166 12.6 4.19564 12.6 5.03327Z" fill="#A02310"/>
<path d="M10.5583 12.1499C11.0416 12.1499 11.4333 12.5417 11.4333 13.0249C11.4333 13.5082 11.0416 13.8999 10.5583 13.8999C10.0751 13.8999 9.68335 13.5082 9.68335 13.0249C9.68335 12.5417 10.0751 12.1499 10.5583 12.1499Z" fill="#A02310"/>
</svg>
