<svg width="14" height="18" viewBox="0 0 14 18" fill="none" xmlns="http://www.w3.org/2000/svg">
<path fill-rule="evenodd" clip-rule="evenodd" d="M4.31689 3.80846C4.31689 3.93496 4.36722 4.0497 4.44895 4.13375L8.84143 8.67946C9.0155 8.8596 9.0163 9.14503 8.84324 9.32614L4.44687 13.927C4.36637 14.0108 4.31689 14.1247 4.31689 14.2501C4.31689 14.5079 4.52583 14.7168 4.78356 14.7168C4.91243 14.7168 5.02911 14.6646 5.11356 14.5801L5.11357 14.5801L9.6999 9.99377C10.2488 9.44488 10.2463 8.55418 9.69436 8.00836L5.11172 3.47664L5.1117 3.47665C5.0274 3.39328 4.91149 3.3418 4.78356 3.3418C4.52583 3.3418 4.31689 3.55073 4.31689 3.80846Z" fill="#5A5A5A"/>
</svg>
