<svg width="14" height="18" viewBox="0 0 14 18" fill="none" xmlns="http://www.w3.org/2000/svg">
<path fill-rule="evenodd" clip-rule="evenodd" d="M13.4517 4.48026C13.5031 4.40526 13.5332 4.31448 13.5332 4.21667C13.5332 3.95893 13.3243 3.75 13.0666 3.75C12.9043 3.75 12.7613 3.83283 12.6777 3.95852L6.26592 13.3091C6.13813 13.4954 5.86987 13.5137 5.71804 13.3463L1.28051 8.45494C1.19508 8.35983 1.07113 8.3 0.933219 8.3C0.675487 8.3 0.466553 8.50893 0.466553 8.76667C0.466553 8.88557 0.511025 8.9941 0.584244 9.0765L4.97063 14.0543C5.57921 14.745 6.67726 14.6704 7.18688 13.9038L13.4517 4.48026Z" fill="#057652"/>
</svg>
