<svg width="18" height="22" viewBox="0 0 18 22" fill="none" xmlns="http://www.w3.org/2000/svg">
<path fill-rule="evenodd" clip-rule="evenodd" d="M13.1779 5.04811C13.4879 4.71152 14.0024 4.66432 14.3685 4.93888C14.7911 5.25581 14.8469 5.8686 14.4887 6.25674L13.386 7.45126L12.0477 6.27516L13.1779 5.04811ZM11.1329 7.26841L3.75417 15.2796C3.70039 15.3379 3.65874 15.4064 3.63162 15.481L3.17287 16.7425C3.08582 16.982 3.31793 17.2141 3.55733 17.127L4.77092 16.6857C4.86093 16.653 4.9418 16.5992 5.00676 16.5288L12.4701 8.44354L11.1329 7.26841ZM15.0885 3.97888C14.2296 3.33474 13.0225 3.44548 12.2952 4.23514L2.87151 14.4666C2.7102 14.6417 2.58524 14.8471 2.50386 15.0709L2.04512 16.3325C1.60984 17.5295 2.77038 18.69 3.96743 18.2548L5.18102 17.8135C5.45104 17.7153 5.69364 17.5539 5.88852 17.3427L15.3704 7.07068C16.211 6.16008 16.0799 4.72243 15.0885 3.97888Z" fill="#5A5A5A"/>
<path fill-rule="evenodd" clip-rule="evenodd" d="M7.9502 17.45C7.9502 17.2015 8.15167 17 8.4002 17H15.6002C15.8487 17 16.0502 17.2015 16.0502 17.45C16.0502 17.6985 15.8487 17.9 15.6002 17.9H8.4002C8.15167 17.9 7.9502 17.6985 7.9502 17.45Z" fill="#5A5A5A"/>
</svg>
