<svg width="14" height="18" viewBox="0 0 14 18" fill="none" xmlns="http://www.w3.org/2000/svg">
<g clip-path="url(#clip0_177_16337)">
<path fill-rule="evenodd" clip-rule="evenodd" d="M6.99992 3.51683C6.74313 3.51683 6.49046 3.53448 6.24305 3.56864C6.20733 3.6252 6.16165 3.70027 6.10866 3.79332C5.96978 4.03722 5.78096 4.40424 5.5894 4.88531C5.39732 5.36768 5.20259 5.96447 5.05262 6.66683H8.94722C8.79725 5.96447 8.60251 5.36768 8.41044 4.88531C8.21888 4.40424 8.03005 4.03722 7.89117 3.79332C7.83819 3.70027 7.79251 3.6252 7.75678 3.56864C7.50938 3.53448 7.25671 3.51683 6.99992 3.51683ZM4.72228 4.54003C4.49473 5.11149 4.266 5.82448 4.09984 6.66683H2.03638C2.63195 5.40213 3.69664 4.40193 5.00612 3.89058C4.91492 4.08111 4.8187 4.29789 4.72228 4.54003ZM3.95088 7.60016H1.69693C1.57926 8.04708 1.51659 8.5163 1.51659 9.00016C1.51659 9.48403 1.57926 9.95325 1.69693 10.4002H3.90468C3.86393 9.97697 3.84402 9.52708 3.85145 9.05122C3.85945 8.53871 3.89506 8.05456 3.95088 7.60016ZM4.0335 11.3335H2.03638C2.62203 12.5771 3.66131 13.565 4.9409 14.0838C4.85663 13.9179 4.76939 13.7327 4.68264 13.5285C4.43555 12.9471 4.1926 12.2126 4.0335 11.3335ZM4.98344 11.3335H9.0164C8.87127 12.0651 8.66496 12.677 8.45821 13.1635C8.26141 13.6266 8.06404 13.9763 7.9184 14.2072C7.85893 14.3014 7.80814 14.3758 7.76961 14.4299C7.51812 14.4652 7.26115 14.4835 6.99992 14.4835C6.73869 14.4835 6.48172 14.4652 6.23023 14.4299C6.1917 14.3758 6.14091 14.3014 6.08144 14.2072C5.9358 13.9763 5.73843 13.6266 5.54162 13.1635C5.33488 12.677 5.12856 12.0651 4.98344 11.3335ZM9.15712 10.4002H4.84271C4.79919 9.98478 4.77727 9.53974 4.78467 9.06578C4.79281 8.54446 4.83154 8.05535 4.89177 7.60016H9.10807C9.16829 8.05535 9.20703 8.54446 9.21517 9.06578C9.22257 9.53974 9.20065 9.98478 9.15712 10.4002ZM9.96634 11.3335C9.80724 12.2126 9.56429 12.9471 9.31719 13.5285C9.23044 13.7327 9.14321 13.9179 9.05894 14.0838C10.3385 13.565 11.3778 12.5771 11.9635 11.3335H9.96634ZM12.3029 10.4002H10.0952C10.1359 9.97697 10.1558 9.52708 10.1484 9.05122C10.1404 8.53871 10.1048 8.05456 10.049 7.60016H12.3029C12.4206 8.04708 12.4833 8.5163 12.4833 9.00016C12.4833 9.48403 12.4206 9.95325 12.3029 10.4002ZM8.99372 3.89058C10.3032 4.40193 11.3679 5.40213 11.9635 6.66683H9.9C9.73384 5.82448 9.50511 5.11149 9.27756 4.54003C9.18114 4.29789 9.08492 4.08111 8.99372 3.89058ZM0.583252 9.00016C0.583252 5.45634 3.45609 2.5835 6.99992 2.5835C10.5437 2.5835 13.4166 5.45634 13.4166 9.00016C13.4166 12.544 10.5437 15.4168 6.99992 15.4168C3.45609 15.4168 0.583252 12.544 0.583252 9.00016Z" fill="#1156A0"/>
</g>
<defs>
<clipPath id="clip0_177_16337">
<rect width="14" height="14" fill="white" transform="translate(0 2)"/>
</clipPath>
</defs>
</svg>
