<svg width="24" height="24" viewBox="0 0 24 24" fill="none" xmlns="http://www.w3.org/2000/svg">
<path fill-rule="evenodd" clip-rule="evenodd" d="M8.40002 6.79961C8.40002 4.81138 10.0118 3.19961 12 3.19961C13.9882 3.19961 15.6 4.81138 15.6 6.79961C15.6 8.78783 13.9882 10.3996 12 10.3996C10.0118 10.3996 8.40002 8.78783 8.40002 6.79961ZM12 1.59961C9.12814 1.59961 6.80002 3.92773 6.80002 6.79961C6.80002 9.67149 9.12814 11.9996 12 11.9996C14.8719 11.9996 17.2 9.67149 17.2 6.79961C17.2 3.92773 14.8719 1.59961 12 1.59961ZM3.76253 19.7967C4.05849 18.5377 4.77183 17.3044 6.0302 16.38C7.28986 15.4546 9.15001 14.7996 11.8 14.7996H12.2C14.85 14.7996 16.7102 15.4546 17.9698 16.38C19.2282 17.3044 19.9416 18.5377 20.2375 19.7967C20.2721 19.9437 20.2339 20.0723 20.1297 20.1842C20.0165 20.3059 19.8262 20.3996 19.6 20.3996H4.40002C4.17386 20.3996 3.98353 20.3059 3.87036 20.1842C3.76617 20.0723 3.72798 19.9437 3.76253 19.7967ZM11.8 13.1996C8.88428 13.1996 6.67209 13.9231 5.08295 15.0905C3.49252 16.2589 2.5806 17.8327 2.20498 19.4306C1.85452 20.9215 3.1412 21.9996 4.40002 21.9996H19.6C20.8588 21.9996 22.1455 20.9215 21.7951 19.4306C21.4194 17.8327 20.5075 16.2589 18.9171 15.0905C17.328 13.9231 15.1158 13.1996 12.2 13.1996H11.8Z" fill="#4A4459"/>
</svg>
