<svg width="24" height="24" viewBox="0 0 24 24" fill="none" xmlns="http://www.w3.org/2000/svg">
<path fill-rule="evenodd" clip-rule="evenodd" d="M12 1.59961C9.12814 1.59961 6.80002 3.92773 6.80002 6.79961C6.80002 9.67149 9.12814 11.9996 12 11.9996C14.8719 11.9996 17.2 9.67149 17.2 6.79961C17.2 3.92773 14.8719 1.59961 12 1.59961ZM11.8 13.1996C8.88428 13.1996 6.67209 13.9231 5.08295 15.0905C3.49252 16.2589 2.5806 17.8327 2.20498 19.4306C1.85452 20.9215 3.1412 21.9996 4.40002 21.9996H19.6C20.8588 21.9996 22.1455 20.9215 21.7951 19.4306C21.4194 17.8327 20.5075 16.2589 18.9171 15.0905C17.328 13.9231 15.1158 13.1996 12.2 13.1996H11.8Z" fill="#A02310"/>
</svg>
