<svg width="14" height="14" viewBox="0 0 14 14" fill="none" xmlns="http://www.w3.org/2000/svg">
<path d="M8.51668 1.1665C9.22545 1.1665 9.80002 1.74107 9.80002 2.44984V3.96799C9.57431 3.96614 9.33781 3.98593 9.10002 4.03076V2.44984C9.10002 2.12767 8.83885 1.8665 8.51668 1.8665H2.21668C1.89452 1.8665 1.63335 2.12767 1.63335 2.44984V7.66099L1.63483 7.70291C1.66408 8.13033 2.13792 8.3863 2.51462 8.16252L3.77607 7.41318C3.87233 7.356 3.97521 7.31193 4.08198 7.28171C4.02333 7.53775 3.99852 7.80666 4.01715 8.08402L2.87214 8.76442C2.03004 9.26466 0.967127 8.67503 0.934147 7.70736L0.93335 7.66099V2.44984C0.93335 1.74107 1.50792 1.1665 2.21668 1.1665H8.51668Z" fill="#5A5A5A"/>
<path d="M7.84238 5.70611C8.34289 4.9669 9.26067 4.7187 10.0358 4.79773C10.9052 4.88637 11.8882 5.42769 12.01 6.46706C12.5167 6.47028 12.9299 6.68593 13.2135 7.02203C13.5094 7.3728 13.6473 7.83165 13.65 8.27164C13.6527 8.71254 13.5199 9.17834 13.2186 9.54278C12.9883 9.82135 12.6722 10.0241 12.2845 10.1105C12.223 10.4836 12.0767 10.8378 11.8331 11.127C11.4908 11.5334 10.9864 11.7749 10.3681 11.7749C9.85023 11.7749 9.5282 11.882 9.3072 12.0633C9.08301 12.2472 8.8926 12.565 8.76056 13.1332C8.70223 13.3843 8.45139 13.5405 8.20035 13.4822C7.94931 13.4239 7.79304 13.1731 7.85138 12.922C8.00773 12.2492 8.26976 11.7072 8.71521 11.3418C9.16387 10.9737 9.7288 10.8416 10.3681 10.8416C10.7263 10.8416 10.9639 10.7102 11.1193 10.5257C11.2178 10.4087 11.2936 10.2569 11.3387 10.0784C10.9658 9.96889 10.5206 9.71774 10.2704 9.16601C10.164 8.9313 10.268 8.65469 10.5027 8.54827C10.7374 8.44186 11.014 8.54591 11.1204 8.78057C11.2841 9.14143 11.6656 9.22354 11.8519 9.22354C12.1691 9.22353 12.37 9.10453 12.4994 8.94805C12.6383 8.77999 12.7182 8.53781 12.7166 8.27733C12.715 8.01597 12.6316 7.7798 12.5002 7.62393C12.3797 7.48118 12.2048 7.38565 11.9406 7.40211C11.4928 7.43003 11.1099 7.0633 11.0882 6.63546C11.0652 6.18349 10.6267 5.79617 9.94112 5.72628C9.39375 5.67047 8.89784 5.8458 8.63113 6.21208C9.03298 6.63185 9.26699 7.22908 9.26699 7.815C9.26697 8.59584 8.90924 9.15651 8.46171 9.52125C8.02848 9.87433 7.51098 10.0471 7.13189 10.0979C6.87647 10.132 6.64169 9.95269 6.60746 9.69727C6.57326 9.44182 6.7526 9.20694 7.00805 9.17273C7.24694 9.14074 7.59467 9.02389 7.87211 8.79778C8.13522 8.58334 8.33364 8.27522 8.33365 7.815C8.33365 7.37875 8.1153 6.95203 7.81811 6.73515L7.79282 6.71749C7.79062 6.71605 7.78849 6.71452 7.78632 6.71304C7.34439 6.41781 6.76993 6.50038 6.31386 6.86617C5.85568 7.23367 5.64671 7.78357 5.83261 8.27745C5.9862 8.68554 5.76386 9.14565 5.37107 9.29578C4.99249 9.44046 4.8365 9.80977 4.92184 10.2133C5.00698 10.6158 5.30984 10.9244 5.75229 10.9244C5.97185 10.9244 6.22887 10.8799 6.45559 10.8031C6.69653 10.7215 6.83436 10.6269 6.87942 10.574C7.02833 10.399 7.2824 10.3585 7.47836 10.4784C7.6743 10.5983 7.75375 10.8429 7.66578 11.0551C7.66569 11.0554 7.66549 11.0559 7.66521 11.0566C7.66465 11.058 7.66376 11.0603 7.66248 11.0634C7.65989 11.0698 7.65586 11.0798 7.65063 11.0929C7.64014 11.1193 7.62473 11.1588 7.60585 11.2089C7.56803 11.3094 7.51653 11.4522 7.46264 11.6194C7.35297 11.9598 7.24114 12.3782 7.20481 12.743C7.17926 12.9995 6.95062 13.1867 6.69417 13.1612C6.43771 13.1356 6.2505 12.907 6.27604 12.6505C6.30527 12.357 6.37049 12.0516 6.44409 11.7749C6.21598 11.8276 5.97784 11.8578 5.75229 11.8578C4.77937 11.8577 4.16519 11.1465 4.00867 10.4064C3.85964 9.70168 4.10517 8.85415 4.915 8.47603C4.63372 7.54761 5.08236 6.65756 5.72996 6.13814C6.29078 5.68833 7.08921 5.4459 7.84238 5.70611Z" fill="#5A5A5A"/>
</svg>
