<svg width="24" height="24" viewBox="0 0 24 24" fill="none" xmlns="http://www.w3.org/2000/svg">
<path d="M9.26527 3.27755C10.0636 1.21192 13.0436 1.24524 13.7715 3.37755L15.2739 7.77912L15.2905 7.82345C15.3797 8.0418 15.5615 8.21039 15.7877 8.28263L20.2694 9.71349C22.4961 10.4244 22.496 13.5752 20.2694 14.2861L15.7877 15.717C15.5615 15.7892 15.3797 15.9579 15.2905 16.1762L15.2739 16.2205L13.7715 20.6221C13.0321 22.7883 9.96839 22.7883 9.22895 20.6221L7.7266 16.2205C7.64987 15.9958 7.4775 15.8175 7.25746 15.7326L7.21274 15.717L2.73109 14.2861C0.504351 13.5752 0.504347 10.4244 2.73109 9.71349L7.21274 8.28263C7.45403 8.20556 7.64476 8.01884 7.7266 7.77912L9.22895 3.37755L9.26527 3.27755ZM12.2573 3.89435C12.0184 3.19496 11.0526 3.17316 10.7684 3.82892L10.7432 3.89435L9.24066 8.29591C8.99513 9.01521 8.42329 9.57567 7.69926 9.80685L3.21781 11.2377C2.47556 11.4747 2.47556 12.525 3.21781 12.7619L7.69926 14.1928L7.76684 14.2154C8.45882 14.4592 9.0028 15.0069 9.24066 15.7037L10.7432 20.1053C10.9897 20.8273 12.0107 20.8273 12.2573 20.1053L13.7598 15.7037L13.7836 15.6367C14.0411 14.9497 14.5998 14.4167 15.3012 14.1928L19.7827 12.7619C20.5248 12.5249 20.5248 11.4747 19.7827 11.2377L15.3012 9.80685C14.5998 9.58291 14.0411 9.04998 13.7836 8.36291L13.7598 8.29591L12.2573 3.89435Z" fill="#4A4459"/>
<path d="M19.9999 5.19961C19.9999 4.64732 19.5522 4.19961 18.9999 4.19961C18.4476 4.19961 17.9999 4.64732 17.9999 5.19961C17.9999 5.75189 18.4476 6.19961 18.9999 6.19961C19.5522 6.19961 19.9999 5.75189 19.9999 5.19961ZM21.5999 5.19961C21.5999 6.63555 20.4358 7.79961 18.9999 7.79961C17.564 7.79961 16.3999 6.63555 16.3999 5.19961C16.3999 3.76367 17.564 2.59961 18.9999 2.59961C20.4358 2.59961 21.5999 3.76367 21.5999 5.19961Z" fill="#4A4459"/>
<path d="M18.1001 17.4004C18.9285 17.4004 19.6001 18.072 19.6001 18.9004C19.6001 19.7288 18.9285 20.4004 18.1001 20.4004C17.2717 20.4004 16.6001 19.7288 16.6001 18.9004C16.6001 18.072 17.2717 17.4004 18.1001 17.4004Z" fill="#4A4459"/>
</svg>
