<svg width="24" height="24" viewBox="0 0 24 24" fill="none" xmlns="http://www.w3.org/2000/svg">
<path d="M9.42657 3.24841C10.1194 1.2961 12.8802 1.29611 13.5731 3.24841L15.177 7.76794C15.2801 8.05856 15.5116 8.28544 15.8043 8.38259L20.4125 9.91169C22.422 10.5785 22.422 13.421 20.4125 14.0879L15.8043 15.617C15.5299 15.7081 15.3092 15.9131 15.1977 16.1779L15.177 16.2316L13.5731 20.7511C12.8802 22.7034 10.1194 22.7034 9.42657 20.7511L7.82267 16.2316C7.72594 15.9591 7.51646 15.7427 7.24943 15.6367L7.19532 15.617L2.58712 14.0879C0.577718 13.421 0.577744 10.5786 2.58712 9.91169L7.19532 8.38259L7.24943 8.36286C7.51643 8.25685 7.72593 8.0404 7.82267 7.76794L9.42657 3.24841Z" fill="#A02310"/>
<path d="M19.0001 3C20.3256 3 21.4001 4.07452 21.4001 5.4C21.4001 6.72548 20.3256 7.8 19.0001 7.8C17.6746 7.8 16.6001 6.72548 16.6001 5.4C16.6001 4.07452 17.6746 3 19.0001 3Z" fill="#F79070"/>
<path d="M18.0998 17.4004C18.8178 17.4004 19.3998 17.9824 19.3998 18.7004C19.3998 19.4184 18.8178 20.0004 18.0998 20.0004C17.3818 20.0004 16.7998 19.4184 16.7998 18.7004C16.7998 17.9824 17.3818 17.4004 18.0998 17.4004Z" fill="#F2502C"/>
</svg>
