<svg width="14" height="18" viewBox="0 0 14 18" fill="none" xmlns="http://www.w3.org/2000/svg">
<path fill-rule="evenodd" clip-rule="evenodd" d="M3.38328 4.21689C3.38328 3.95916 3.59222 3.75023 3.84995 3.75023H6.41662H6.53328V6.43356C6.53328 7.20676 7.16009 7.83356 7.93328 7.83356H10.6166V7.95023V13.7836C10.6166 14.0413 10.4077 14.2502 10.15 14.2502H3.84995C3.59222 14.2502 3.38328 14.0413 3.38328 13.7836V4.21689ZM11.55 7.95023V13.7836C11.55 14.5568 10.9232 15.1836 10.15 15.1836H3.84995C3.07675 15.1836 2.44995 14.5568 2.44995 13.7836V4.21689C2.44995 3.4437 3.07675 2.81689 3.84995 2.81689H6.41662H6.61335C6.98466 2.81689 7.34075 2.96439 7.6033 3.22695L11.1399 6.76354C11.4025 7.02609 11.55 7.38219 11.55 7.75349V7.95023ZM9.95665 6.90023L7.46662 4.41019V6.43356C7.46662 6.69129 7.67555 6.90023 7.93328 6.90023H9.95665Z" fill="#9E720B"/>
</svg>
