<svg width="14" height="18" viewBox="0 0 14 18" fill="none" xmlns="http://www.w3.org/2000/svg">
<path d="M11.2478 10.7204C11.6496 10.8591 12.0028 11.0387 12.31 11.2511C13.0722 11.7782 13.5294 12.4929 13.741 13.2321C13.8486 13.6083 13.735 13.9624 13.5067 14.2114C13.2835 14.455 12.9519 14.5998 12.6001 14.5998H12.3724C12.4965 14.3921 12.5829 14.1574 12.6176 13.8993C12.7737 13.8946 12.9083 13.8284 12.9907 13.7385C13.0712 13.6507 13.1021 13.544 13.068 13.4247C12.9234 12.9197 12.6375 12.4288 12.1743 12.0296C11.9449 11.5654 11.6386 11.1215 11.2478 10.7204ZM8.84839 3.76465C10.1051 3.90084 11.0834 4.96522 11.0834 6.25817C11.0834 7.64347 9.96036 8.76648 8.57507 8.7665C8.4879 8.7665 8.40177 8.76197 8.31689 8.75329C8.55615 8.53996 8.76764 8.29629 8.94557 8.02834C9.76657 7.85738 10.3834 7.12989 10.3834 6.25817C10.3834 5.52146 9.94287 4.88766 9.31084 4.60581C9.19279 4.30434 9.03667 4.02202 8.84839 3.76465Z" fill="#057652"/>
<path d="M6.18319 9.6998C7.88402 9.6998 9.17444 10.1219 10.1014 10.8029C11.0292 11.4844 11.5612 12.4025 11.7803 13.3346C11.9847 14.2042 11.2342 14.8331 10.4999 14.8331H1.63319C0.898912 14.8331 0.148332 14.2042 0.352708 13.3346C0.571818 12.4025 1.10388 11.4844 2.03161 10.8029C2.95861 10.1219 4.24904 9.69981 5.94986 9.6998H6.18319ZM5.94986 10.6331C4.40405 10.6331 3.31898 11.0153 2.58419 11.5551C1.85016 12.0943 1.43396 12.8137 1.26132 13.5481C1.24117 13.6338 1.26346 13.7088 1.32421 13.7741C1.39022 13.8451 1.50128 13.8998 1.63319 13.8998H10.4999C10.6318 13.8998 10.7428 13.8451 10.8088 13.7741C10.8696 13.7088 10.8919 13.6338 10.8717 13.5481C10.6991 12.8137 10.2829 12.0943 9.54887 11.5551C8.81407 11.0153 7.72901 10.6331 6.18319 10.6331H5.94986ZM5.83319 3.0498C7.44402 3.0498 8.74986 4.35564 8.74986 5.96647C8.74986 7.5773 7.44402 8.88314 5.83319 8.88314C4.22238 8.88312 2.91653 7.57729 2.91653 5.96647C2.91653 4.35565 4.22238 3.04983 5.83319 3.0498ZM5.83319 3.98314C4.73785 3.98316 3.84986 4.87112 3.84986 5.96647C3.84986 7.06182 4.73785 7.94978 5.83319 7.9498C6.92856 7.9498 7.81653 7.06184 7.81653 5.96647C7.81653 4.87111 6.92856 3.98314 5.83319 3.98314Z" fill="#057652"/>
</svg>
