<svg width="24" height="24" viewBox="0 0 24 24" fill="none" xmlns="http://www.w3.org/2000/svg">
<path d="M4.3999 16.1998C6.05676 16.1998 7.3999 17.543 7.3999 19.1998C7.3999 20.8567 6.05676 22.1998 4.3999 22.1998C2.74305 22.1998 1.3999 20.8567 1.3999 19.1998C1.3999 17.543 2.74305 16.1998 4.3999 16.1998ZM4.3999 17.3998C3.40579 17.3998 2.5999 18.2057 2.5999 19.1998C2.5999 20.1939 3.40579 20.9998 4.3999 20.9998C5.39401 20.9998 6.1999 20.1939 6.1999 19.1998C6.1999 18.2057 5.39401 17.3998 4.3999 17.3998ZM21.9999 18.5998C22.3313 18.5998 22.5999 18.8684 22.5999 19.1998C22.5999 19.5312 22.3313 19.7998 21.9999 19.7998H9.5999C9.26853 19.7998 8.9999 19.5312 8.9999 19.1998C8.9999 18.8684 9.26853 18.5998 9.5999 18.5998H21.9999ZM4.3999 8.99981C6.05676 8.99981 7.3999 10.343 7.3999 11.9998C7.3999 13.6567 6.05676 14.9998 4.3999 14.9998C2.74305 14.9998 1.3999 13.6567 1.3999 11.9998C1.3999 10.343 2.74305 8.99981 4.3999 8.99981ZM4.3999 10.1998C3.40579 10.1998 2.5999 11.0057 2.5999 11.9998C2.5999 12.9939 3.40579 13.7998 4.3999 13.7998C5.39401 13.7998 6.1999 12.9939 6.1999 11.9998C6.1999 11.0057 5.39401 10.1998 4.3999 10.1998ZM21.9999 11.3998C22.3313 11.3998 22.5999 11.6684 22.5999 11.9998C22.5999 12.3312 22.3313 12.5998 21.9999 12.5998H9.5999C9.26853 12.5998 8.9999 12.3312 8.9999 11.9998C8.9999 11.6684 9.26853 11.3998 9.5999 11.3998H21.9999ZM4.3999 1.7998C6.05676 1.7998 7.3999 3.14295 7.3999 4.7998C7.3999 6.45666 6.05676 7.79981 4.3999 7.79981C2.74305 7.79981 1.3999 6.45666 1.3999 4.7998C1.3999 3.14295 2.74305 1.7998 4.3999 1.7998ZM4.3999 2.9998C3.40579 2.9998 2.5999 3.80569 2.5999 4.7998C2.5999 5.79392 3.40579 6.59981 4.3999 6.59981C5.39401 6.59981 6.1999 5.79392 6.1999 4.7998C6.1999 3.80569 5.39401 2.9998 4.3999 2.9998ZM21.9999 4.1998C22.3313 4.1998 22.5999 4.46843 22.5999 4.7998C22.5999 5.13118 22.3313 5.39981 21.9999 5.39981H9.5999C9.26853 5.39981 8.9999 5.13118 8.9999 4.7998C8.9999 4.46843 9.26853 4.1998 9.5999 4.1998H21.9999Z" fill="#4A4459"/>
</svg>
