<svg width="24" height="24" viewBox="0 0 24 24" fill="none" xmlns="http://www.w3.org/2000/svg">
<path d="M4.5999 15.9996C6.36721 15.9996 7.7999 17.4323 7.7999 19.1996C7.7999 20.9669 6.36721 22.3996 4.5999 22.3996C2.83259 22.3996 1.3999 20.9669 1.3999 19.1996C1.3999 17.4323 2.83259 15.9996 4.5999 15.9996ZM21.7999 18.3996C22.2417 18.3996 22.5999 18.7578 22.5999 19.1996C22.5999 19.6414 22.2417 19.9996 21.7999 19.9996H10.7999C10.3581 19.9996 9.9999 19.6414 9.9999 19.1996C9.9999 18.7578 10.3581 18.3996 10.7999 18.3996H21.7999ZM4.5999 8.79961C6.36721 8.79961 7.7999 10.2323 7.7999 11.9996C7.7999 13.7669 6.36721 15.1996 4.5999 15.1996C2.83259 15.1996 1.3999 13.7669 1.3999 11.9996C1.3999 10.2323 2.83259 8.79961 4.5999 8.79961ZM21.7999 11.1996C22.2417 11.1996 22.5999 11.5578 22.5999 11.9996C22.5999 12.4414 22.2417 12.7996 21.7999 12.7996H10.7999C10.3581 12.7996 9.9999 12.4414 9.9999 11.9996C9.9999 11.5578 10.3581 11.1996 10.7999 11.1996H21.7999ZM4.5999 1.59961C6.36721 1.59961 7.7999 3.0323 7.7999 4.79961C7.7999 6.56692 6.36721 7.99961 4.5999 7.99961C2.83259 7.99961 1.3999 6.56692 1.3999 4.79961C1.3999 3.0323 2.83259 1.59961 4.5999 1.59961ZM21.7999 3.99961C22.2417 3.99961 22.5999 4.35778 22.5999 4.79961C22.5999 5.24144 22.2417 5.59961 21.7999 5.59961H10.7999C10.3581 5.59961 9.9999 5.24144 9.9999 4.79961C9.9999 4.35778 10.3581 3.99961 10.7999 3.99961H21.7999Z" fill="#A02310"/>
</svg>
