<svg width="14" height="18" viewBox="0 0 14 18" fill="none" xmlns="http://www.w3.org/2000/svg">
<path d="M4.54992 3.2832C4.80765 3.2832 5.01659 3.49214 5.01659 3.74987V14.2499C5.01659 14.5076 4.80765 14.7165 4.54992 14.7165C4.29219 14.7165 4.08325 14.5076 4.08325 14.2499V3.74987C4.08325 3.49214 4.29219 3.2832 4.54992 3.2832ZM2.79992 4.91654C3.05765 4.91654 3.26659 5.12547 3.26659 5.3832V12.6165L3.26602 12.6406C3.25351 12.8871 3.04959 13.0832 2.79992 13.0832C2.55025 13.0832 2.34633 12.8871 2.33382 12.6406L2.33325 12.6165V5.3832C2.33325 5.12547 2.54219 4.91654 2.79992 4.91654ZM9.37655 6.22607C9.6923 5.07318 11.3653 5.09175 11.6373 6.28179L11.9121 7.48434C11.9293 7.5597 11.9827 7.62168 12.0548 7.64977L12.7297 7.91284C13.7203 8.29899 13.7202 9.70074 12.7297 10.0869L12.0548 10.35C11.9827 10.3781 11.9293 10.44 11.9121 10.5154L11.6373 11.718C11.361 12.9269 9.63886 12.9269 9.36253 11.718L9.08773 10.5154C9.07157 10.4447 9.02359 10.3859 8.9583 10.3557L8.94509 10.35L8.27015 10.0869C7.27959 9.70074 7.27959 8.29899 8.27015 7.91284L8.94509 7.64977L8.9583 7.64408C9.02359 7.61385 9.07158 7.55501 9.08773 7.48434L9.36253 6.28179L9.37655 6.22607ZM10.7274 6.48983C10.6739 6.25561 10.3489 6.24824 10.2784 6.46784L10.2724 6.48983L9.99759 7.69227C9.91415 8.05739 9.66077 8.35956 9.31753 8.50574L9.28403 8.51942L8.6091 8.78249C8.411 8.85972 8.41101 9.14001 8.6091 9.21725L9.28403 9.48032L9.31753 9.49399C9.66077 9.64018 9.91414 9.94236 9.99759 10.3075L10.2724 11.5099C10.3277 11.7517 10.6722 11.7517 10.7274 11.5099L11.0022 10.3075C11.0884 9.93058 11.3556 9.62074 11.7158 9.48032L12.3907 9.21725C12.5888 9.14001 12.5888 8.85972 12.3907 8.78249L11.7158 8.51942C11.3556 8.37899 11.0884 8.06916 11.0022 7.69227L10.7274 6.48983ZM6.41659 6.54987C6.67432 6.54987 6.88325 6.7588 6.88325 7.01654V11.0999C6.88325 11.3576 6.67432 11.5665 6.41659 11.5665C6.15885 11.5665 5.94992 11.3576 5.94992 11.0999V7.01654C5.94992 6.7588 6.15885 6.54987 6.41659 6.54987ZM1.04992 7.1332C1.30765 7.1332 1.51659 7.34214 1.51659 7.59987V10.5165C1.51659 10.7743 1.30765 10.9832 1.04992 10.9832C0.792186 10.9832 0.583252 10.7743 0.583252 10.5165V7.59987C0.583252 7.34214 0.792186 7.1332 1.04992 7.1332Z" fill="#A02310"/>
</svg>
