<svg width="14" height="18" viewBox="0 0 14 18" fill="none" xmlns="http://www.w3.org/2000/svg">
<path d="M5.72351 4.51195C6.37791 3.4153 7.70285 3.05522 8.82259 3.19683C10.0276 3.34924 11.3091 4.13641 11.3664 5.54634C12.0511 5.50118 12.6166 5.74271 13.0171 6.16271C13.4405 6.6068 13.6503 7.21761 13.671 7.81405C13.6916 8.41151 13.5244 9.04177 13.1326 9.53226C12.8085 9.93814 12.3453 10.2284 11.7608 10.3253C11.6928 10.8712 11.4925 11.387 11.1452 11.7976C10.6991 12.325 10.0406 12.6424 9.21998 12.6424C8.46099 12.6424 7.95425 12.7987 7.59394 13.0931C7.23072 13.3899 6.94647 13.8838 6.7546 14.7062L6.75449 14.706C6.70647 14.9127 6.52137 15.0667 6.30013 15.0667C6.04241 15.0667 5.83348 14.8578 5.83346 14.6001C5.83346 14.5634 5.83787 14.5277 5.84588 14.4934C6.06234 13.5661 6.41861 12.8481 7.00343 12.3703C7.5913 11.89 8.34034 11.7091 9.21998 11.7091C9.78191 11.709 10.1739 11.5007 10.4326 11.1949C10.628 10.9639 10.7629 10.6575 10.8214 10.3028C10.3088 10.1901 9.62976 9.87898 9.26453 9.08906C9.26283 9.08561 9.26125 9.08209 9.25963 9.07858C9.25935 9.07797 9.259 9.07738 9.25872 9.07676V9.07665C9.23187 9.01775 9.2168 8.95236 9.21679 8.88342C9.21679 8.62568 9.42573 8.41675 9.68346 8.41675C9.87222 8.41676 10.0347 8.52883 10.1082 8.69007L10.1353 8.74601C10.4264 9.30935 11.0366 9.42755 11.3208 9.42756C11.8381 9.42755 12.1825 9.22633 12.4034 8.94984C12.6341 8.66088 12.7525 8.259 12.7382 7.84629C12.7239 7.43258 12.5782 7.05489 12.3416 6.80677C12.1255 6.58013 11.808 6.4324 11.3498 6.48446L11.3051 6.49004C10.8336 6.55571 10.418 6.1622 10.4343 5.70117L10.4351 5.66266C10.4408 4.8578 9.72514 4.25172 8.70546 4.12276C7.80038 4.0083 6.92243 4.315 6.51215 5.01599C7.10924 5.57142 7.46679 6.41737 7.46679 7.25008C7.46678 8.28614 6.99265 9.02504 6.39731 9.50822C5.82072 9.97618 5.12963 10.2079 4.62338 10.2775C4.62179 10.2777 4.62019 10.2779 4.6186 10.2782C4.61631 10.2785 4.61405 10.279 4.61176 10.2793L4.61165 10.2791C4.59151 10.2817 4.57099 10.2834 4.55013 10.2834C4.29241 10.2834 4.08348 10.0745 4.08346 9.81675C4.08346 9.57991 4.25988 9.38435 4.48849 9.35419L4.55924 9.34348C4.92178 9.28242 5.41057 9.10713 5.80919 8.78361C6.22008 8.45014 6.53345 7.96398 6.53346 7.25008C6.53346 6.58063 6.19981 5.91858 5.72386 5.57311L5.67737 5.54064C4.94518 5.05035 4.00914 5.21718 3.31225 5.80064C2.61677 6.38293 2.29293 7.26789 2.66238 8.07962L2.6789 8.11893C2.83241 8.51444 2.62013 8.96705 2.22625 9.10878L2.18626 9.12188C1.46538 9.33607 1.19138 9.97283 1.30898 10.6227C1.42786 11.2795 1.92843 11.8257 2.68448 11.8257C3.01876 11.8257 3.40381 11.7588 3.74303 11.6443C4.07443 11.5325 4.30137 11.3959 4.40874 11.2853L4.42867 11.2636C4.51427 11.1635 4.64145 11.1001 4.78346 11.1001C5.04118 11.1001 5.25012 11.309 5.25012 11.5667C5.25012 11.6319 5.23664 11.6939 5.21253 11.7502C5.21165 11.7523 5.21051 11.7554 5.209 11.7591C5.20514 11.7685 5.19928 11.7831 5.19168 11.8021C5.17645 11.8403 5.15412 11.8969 5.12696 11.9687C5.07255 12.1126 4.99863 12.3169 4.9212 12.5563C4.76443 13.0408 4.60127 13.6457 4.54785 14.1799C4.5245 14.4158 4.32548 14.6001 4.08346 14.6001C3.82574 14.6001 3.61682 14.3911 3.61679 14.1334C3.61679 14.115 3.61791 14.0968 3.61998 14.079C3.67233 13.5636 3.80611 13.0182 3.94252 12.5604C3.54124 12.6849 3.09563 12.759 2.68448 12.7591C1.38512 12.7591 0.572266 11.7928 0.390571 10.7889C0.216601 9.82763 0.604454 8.72035 1.73919 8.28846C1.27441 7.04805 1.83672 5.81876 2.71308 5.08503C3.50919 4.41849 4.66509 4.07635 5.72351 4.51195ZM8.87545 10.065C9.11437 10.0028 9.36272 10.1383 9.43782 10.3764C9.5153 10.6222 9.37883 10.8843 9.13305 10.9618L9.0844 10.9766C8.83979 11.0483 8.57618 11.0853 8.29599 11.0853C7.43318 11.0853 6.89247 11.2862 6.52024 11.6743C6.34185 11.8603 6.04645 11.8663 5.86046 11.688C5.67447 11.5096 5.66829 11.2142 5.84667 11.0282C6.45904 10.3897 7.28943 10.1519 8.29599 10.1519C8.50701 10.1519 8.6918 10.1224 8.85244 10.0717L8.87545 10.065ZM4.76546 6.34865C4.99806 6.25792 5.25927 6.3665 5.36053 6.59167L5.36987 6.61377L5.38502 6.65456C5.69167 7.50932 5.16206 8.36564 4.31326 8.57785C4.06325 8.64032 3.80988 8.48822 3.74736 8.23822C3.68683 7.996 3.82767 7.75061 4.06386 7.6787L4.12003 7.6632C4.45576 7.56279 4.60185 7.25825 4.51025 6.98063L4.50034 6.95306L4.49213 6.93039C4.41419 6.69615 4.53287 6.43939 4.76546 6.34865ZM8.37768 5.49997C8.87957 5.49698 9.40281 5.65779 9.78714 5.98897C10.2033 6.34761 10.4358 6.89375 10.2936 7.54608C10.2387 7.79789 9.99007 7.95747 9.73826 7.90257C9.48645 7.84766 9.32687 7.59907 9.38177 7.34727C9.44647 7.05048 9.35121 6.84544 9.17783 6.69603C8.98497 6.52986 8.67826 6.42499 8.35444 6.43376L8.3304 6.43387C8.08359 6.42805 7.88212 6.22954 7.87535 5.97997C7.8684 5.72235 8.07153 5.50775 8.32915 5.50077L8.37768 5.49997Z" fill="#5A5A5A"/>
</svg>
