<svg width="14" height="18" viewBox="0 0 14 18" fill="none" xmlns="http://www.w3.org/2000/svg">
<path fill-rule="evenodd" clip-rule="evenodd" d="M12.5799 7.73662C12.6643 7.82107 12.7166 7.93774 12.7166 8.06661C12.7166 8.32434 12.5076 8.53328 12.2499 8.53328C12.1245 8.53328 12.0106 8.4838 11.9267 8.4033L7.46655 4.14134V14.8333C7.46655 15.091 7.25762 15.2999 6.99989 15.2999C6.74215 15.2999 6.53322 15.091 6.53322 14.8333V4.14982L2.1335 8.40123C2.04945 8.48295 1.93471 8.53328 1.80822 8.53328C1.55049 8.53328 1.34155 8.32434 1.34155 8.06661C1.34155 7.93868 1.39303 7.82277 1.4764 7.73847L1.4764 7.73847L6.00812 3.15583C6.55394 2.60388 7.44464 2.60139 7.99353 3.15028L12.5799 7.73662Z" fill="#1156A0"/>
</svg>
