<svg width="18" height="22" viewBox="0 0 18 22" fill="none" xmlns="http://www.w3.org/2000/svg">
<path d="M13.8001 10.7002C14.1315 10.7002 14.4001 10.9688 14.4001 11.3002V11.6002C14.4001 14.3797 12.3 16.6683 9.6001 16.9668V17.7502H10.3501L10.381 17.7509C10.698 17.767 10.9501 18.0292 10.9501 18.3502C10.9501 18.6712 10.698 18.9334 10.381 18.9495L10.3501 18.9502H7.6501C7.31873 18.9502 7.0501 18.6816 7.0501 18.3502C7.0501 18.0188 7.31873 17.7502 7.6501 17.7502H8.4001V16.9668C5.70015 16.6683 3.6001 14.3797 3.6001 11.6002V11.3002C3.6001 10.9688 3.86873 10.7002 4.2001 10.7002C4.53147 10.7002 4.8001 10.9688 4.8001 11.3002V11.6002C4.8001 13.9198 6.6805 15.8002 9.0001 15.8002C11.3197 15.8002 13.2001 13.9198 13.2001 11.6002V11.3002C13.2001 10.9688 13.4687 10.7002 13.8001 10.7002ZM9.0001 3.2002C10.9883 3.2002 12.6001 4.81197 12.6001 6.8002V11.6002C12.6001 13.5884 10.9883 15.2002 9.0001 15.2002C7.01187 15.2002 5.4001 13.5884 5.4001 11.6002V6.8002C5.4001 4.81197 7.01187 3.2002 9.0001 3.2002ZM9.0001 4.4002C7.67461 4.4002 6.6001 5.47471 6.6001 6.8002V11.6002C6.6001 12.9257 7.67461 14.0002 9.0001 14.0002C10.3256 14.0002 11.4001 12.9257 11.4001 11.6002V6.8002C11.4001 5.47471 10.3256 4.4002 9.0001 4.4002Z" fill="#5A5A5A"/>
</svg>
